HIERARCHY
ROOT Hips
{
  OFFSET -0.312017 91.2428 1.25062
  CHANNELS 6 Xposition Yposition Zposition Zrotation Xrotation Yrotation
  JOINT Spine
  {
    OFFSET 0 9.9235 -1.2273
    CHANNELS 6 Xposition Yposition Zposition Zrotation Xrotation Yrotation
    JOINT Spine1
    {
      OFFSET -0.0001 11.6454 -1.4223
      CHANNELS 6 Xposition Yposition Zposition Zrotation Xrotation Yrotation
      JOINT Spine2
      {
        OFFSET 0.0001 13.3602 -1.6265
        CHANNELS 6 Xposition Yposition Zposition Zrotation Xrotation Yrotation
        JOINT Neck
        {
          OFFSET 0 15.0325 0.7929
          CHANNELS 6 Xposition Yposition Zposition Zrotation Xrotation Yrotation
          JOINT Head
          {
            OFFSET 0 10.3218 3.1424
            CHANNELS 6 Xposition Yposition Zposition Zrotation Xrotation Yrotation
            JOINT HeadTop_End
            {
              OFFSET 0.0002 18.4747 6.6364
              CHANNELS 6 Xposition Yposition Zposition Zrotation Xrotation Yrotation
              End Site
              {
                OFFSET 0 0 0
              }
            }
            JOINT LeftEye
            {
              OFFSET 2.9479 7.6817 9.1207
              CHANNELS 6 Xposition Yposition Zposition Zrotation Xrotation Yrotation
              End Site
              {
                OFFSET 0 0 0
              }
            }
            JOINT RightEye
            {
              OFFSET -2.9445 7.6817 9.1205
              CHANNELS 6 Xposition Yposition Zposition Zrotation Xrotation Yrotation
              End Site
              {
                OFFSET 0 0 0
              }
            }
          }
        }
        JOINT LeftShoulder
        {
          OFFSET 6.1058 9.1104 0.7056
          CHANNELS 6 Xposition Yposition Zposition Zrotation Xrotation Yrotation
          JOINT LeftArm
          {
            OFFSET 12.655 -0.2659 -2.6009
            CHANNELS 6 Xposition Yposition Zposition Zrotation Xrotation Yrotation
            JOINT LeftForeArm
            {
              OFFSET 27.4047 0 0
              CHANNELS 6 Xposition Yposition Zposition Zrotation Xrotation Yrotation
              JOINT LeftHand
              {
                OFFSET 27.6145 0 0
                CHANNELS 6 Xposition Yposition Zposition Zrotation Xrotation Yrotation
                JOINT LeftHandMiddle1
                {
                  OFFSET 12.7755 0 0
                  CHANNELS 6 Xposition Yposition Zposition Zrotation Xrotation Yrotation
                  JOINT LeftHandMiddle2
                  {
                    OFFSET 3.614 0 0
                    CHANNELS 6 Xposition Yposition Zposition Zrotation Xrotation Yrotation
                    JOINT LeftHandMiddle3
                    {
                      OFFSET 3.4598 0 0
                      CHANNELS 6 Xposition Yposition Zposition Zrotation Xrotation Yrotation
                      End Site
                      {
                        OFFSET 3.6802 0 0
                      }
                    }
                  }
                }
                JOINT LeftHandThumb1
                {
                  OFFSET 3.7888 -2.167 3.0031
                  CHANNELS 6 Xposition Yposition Zposition Zrotation Xrotation Yrotation
                  JOINT LeftHandThumb2
                  {
                    OFFSET 3.6754 -2.122 2.122
                    CHANNELS 6 Xposition Yposition Zposition Zrotation Xrotation Yrotation
                    JOINT LeftHandThumb3
                    {
                      OFFSET 3.3944 -1.9597 1.9598
                      CHANNELS 6 Xposition Yposition Zposition Zrotation Xrotation Yrotation
                      End Site
                      {
                        OFFSET 2.6794 -1.5469 1.5469
                      }
                    }
                  }
                }
                JOINT LeftHandIndex1
                {
                  OFFSET 12.2666 -0.2317 2.8221
                  CHANNELS 6 Xposition Yposition Zposition Zrotation Xrotation Yrotation
                  JOINT LeftHandIndex2
                  {
                    OFFSET 3.892 0 0
                    CHANNELS 6 Xposition Yposition Zposition Zrotation Xrotation Yrotation
                    JOINT LeftHandIndex3
                    {
                      OFFSET 3.4152 0 0
                      CHANNELS 6 Xposition Yposition Zposition Zrotation Xrotation Yrotation
                      End Site
                      {
                        OFFSET 3.078 0 0
                      }
                    }
                  }
                }
                JOINT LeftHandRing1
                {
                  OFFSET 12.147 0.0099 -2.2166
                  CHANNELS 6 Xposition Yposition Zposition Zrotation Xrotation Yrotation
                  JOINT LeftHandRing2
                  {
                    OFFSET 3.6012 0 0
                    CHANNELS 6 Xposition Yposition Zposition Zrotation Xrotation Yrotation
                    JOINT LeftHandRing3
                    {
                      OFFSET 3.3073 0 0
                      CHANNELS 6 Xposition Yposition Zposition Zrotation Xrotation Yrotation
                      End Site
                      {
                        OFFSET 3.6601 0 0
                      }
                    }
                  }
                }
                JOINT LeftHandPinky1
                {
                  OFFSET 10.9082 -0.2264 -4.7258
                  CHANNELS 6 Xposition Yposition Zposition Zrotation Xrotation Yrotation
                  JOINT LeftHandPinky2
                  {
                    OFFSET 4.1367 0 0
                    CHANNELS 6 Xposition Yposition Zposition Zrotation Xrotation Yrotation
                    JOINT LeftHandPinky3
                    {
                      OFFSET 2.5948 0 0
                      CHANNELS 6 Xposition Yposition Zposition Zrotation Xrotation Yrotation
                      End Site
                      {
                        OFFSET 2.9239 0 0
                      }
                    }
                  }
                }
              }
            }
          }
        }
        JOINT RightShoulder
        {
          OFFSET -6.1057 9.1105 0.7056
          CHANNELS 6 Xposition Yposition Zposition Zrotation Xrotation Yrotation
          JOINT RightArm
          {
            OFFSET -12.655 -0.266 -2.6009
            CHANNELS 6 Xposition Yposition Zposition Zrotation Xrotation Yrotation
            JOINT RightForeArm
            {
              OFFSET -27.4047 0 0
              CHANNELS 6 Xposition Yposition Zposition Zrotation Xrotation Yrotation
              JOINT RightHand
              {
                OFFSET -27.6145 0 0
                CHANNELS 6 Xposition Yposition Zposition Zrotation Xrotation Yrotation
                JOINT RightHandMiddle1
                {
                  OFFSET -12.7755 0 0
                  CHANNELS 6 Xposition Yposition Zposition Zrotation Xrotation Yrotation
                  JOINT RightHandMiddle2
                  {
                    OFFSET -3.614 0 0
                    CHANNELS 6 Xposition Yposition Zposition Zrotation Xrotation Yrotation
                    JOINT RightHandMiddle3
                    {
                      OFFSET -3.4598 0 0
                      CHANNELS 6 Xposition Yposition Zposition Zrotation Xrotation Yrotation
                      End Site
                      {
                        OFFSET -3.6802 0 0
                      }
                    }
                  }
                }
                JOINT RightHandThumb1
                {
                  OFFSET -3.7888 -2.167 3.0031
                  CHANNELS 6 Xposition Yposition Zposition Zrotation Xrotation Yrotation
                  JOINT RightHandThumb2
                  {
                    OFFSET -3.6754 -2.122 2.122
                    CHANNELS 6 Xposition Yposition Zposition Zrotation Xrotation Yrotation
                    JOINT RightHandThumb3
                    {
                      OFFSET -3.3944 -1.9597 1.9598
                      CHANNELS 6 Xposition Yposition Zposition Zrotation Xrotation Yrotation
                      End Site
                      {
                        OFFSET -2.6794 -1.5469 1.5469
                      }
                    }
                  }
                }
                JOINT RightHandIndex1
                {
                  OFFSET -12.2666 -0.2317 2.8221
                  CHANNELS 6 Xposition Yposition Zposition Zrotation Xrotation Yrotation
                  JOINT RightHandIndex2
                  {
                    OFFSET -3.892 0 0
                    CHANNELS 6 Xposition Yposition Zposition Zrotation Xrotation Yrotation
                    JOINT RightHandIndex3
                    {
                      OFFSET -3.4152 0 0
                      CHANNELS 6 Xposition Yposition Zposition Zrotation Xrotation Yrotation
                      End Site
                      {
                        OFFSET -3.078 0 0
                      }
                    }
                  }
                }
                JOINT RightHandRing1
                {
                  OFFSET -12.147 0.0099 -2.2166
                  CHANNELS 6 Xposition Yposition Zposition Zrotation Xrotation Yrotation
                  JOINT RightHandRing2
                  {
                    OFFSET -3.6012 0 0
                    CHANNELS 6 Xposition Yposition Zposition Zrotation Xrotation Yrotation
                    JOINT RightHandRing3
                    {
                      OFFSET -3.3073 0 0
                      CHANNELS 6 Xposition Yposition Zposition Zrotation Xrotation Yrotation
                      End Site
                      {
                        OFFSET 0 0 0
                      }
                    }
                  }
                }
                JOINT RightHandPinky1
                {
                  OFFSET -10.9082 -0.2264 -4.7258
                  CHANNELS 6 Xposition Yposition Zposition Zrotation Xrotation Yrotation
                  JOINT RightHandPinky2
                  {
                    OFFSET -4.1367 0 0
                    CHANNELS 6 Xposition Yposition Zposition Zrotation Xrotation Yrotation
                    JOINT RightHandPinky3
                    {
                      OFFSET -2.5948 0 0
                      CHANNELS 6 Xposition Yposition Zposition Zrotation Xrotation Yrotation
                      End Site
                      {
                        OFFSET -2.9239 0 0
                      }
                    }
                  }
                }
              }
            }
          }
        }
      }
    }
  }
  JOINT RightUpLeg
  {
    OFFSET -9.1245 -6.6564 -0.0554
    CHANNELS 6 Xposition Yposition Zposition Zrotation Xrotation Yrotation
    JOINT RightLeg
    {
      OFFSET -0.2447 -40.5954 -0.5145
      CHANNELS 6 Xposition Yposition Zposition Zrotation Xrotation Yrotation
      JOINT RightFoot
      {
        OFFSET 0.2447 -42.0479 -2.0602
        CHANNELS 6 Xposition Yposition Zposition Zrotation Xrotation Yrotation
        JOINT RightToeBase
        {
          OFFSET -0.3734 -10.4922 12.6407
          CHANNELS 6 Xposition Yposition Zposition Zrotation Xrotation Yrotation
          End Site
          {
            OFFSET 0 0 9.9925
          }
        }
      }
    }
  }
  JOINT LeftUpLeg
  {
    OFFSET 9.1245 -6.6564 -0.0554
    CHANNELS 6 Xposition Yposition Zposition Zrotation Xrotation Yrotation
    JOINT LeftLeg
    {
      OFFSET 0.2447 -40.5954 -0.517
      CHANNELS 6 Xposition Yposition Zposition Zrotation Xrotation Yrotation
      JOINT LeftFoot
      {
        OFFSET -0.2447 -42.048 -2.0576
        CHANNELS 6 Xposition Yposition Zposition Zrotation Xrotation Yrotation
        JOINT LeftToeBase
        {
          OFFSET 0.3734 -10.4922 12.6407
          CHANNELS 6 Xposition Yposition Zposition Zrotation Xrotation Yrotation
          End Site
          {
            OFFSET 0 0 9.9925
          }
        }
      }
    }
  }
}
MOTION
Frames:	4
Frame Time:	0.0166667
-0.312017 91.2428 1.25062 2.10238 18.678 -5.40932 -5.55112e-017 9.9235 -1.2273 -7.5463 14.0994 -0.940289 -0.0001 11.6454 -1.4223 -3.81833 10.3631 -0.0954121 0.0001 13.3602 -1.6265 -3.83806 10.359 -0.0120193 7.10543e-015 15.0325 0.7929 0.758416 -9.68308 0.169101 0 10.3218 3.1424 7.85007 -28.1772 2.75387 0.0002 18.4747 6.6364 -4.96962e-016 0 -3.97569e-016 2.9479 7.6817 9.1207 -4.96962e-016 0 -3.97569e-016 -2.9445 7.6817 9.1205 -4.96962e-016 0 -3.97569e-016 6.1058 9.1104 0.7056 -3.55326 2.09699 -14.458 12.655 -0.2659 -2.6009 -20.5321 -7.40231 -21.6203 27.4047 0 7.10543e-015 -1.41126e-005 -5.41445e-006 -65.2998 27.6145 0 -7.10543e-015 2.83264 3.86392 -16.8179 12.7755 -1.42109e-014 0 -23.5828 -1.37832 4.54074 3.614 0 0 -83.331 -5.19686 5.83887 3.4598 7.10543e-015 3.55271e-015 -64.3163 -3.33125 5.29621 3.7888 -2.167 3.0031 1.02586 0.291307 -8.50453 3.6754 -2.122 2.122 2.39184 9.46574 28.7559 3.3944 -1.9597 1.9598 16.968 14.7042 47.2267 12.2666 -0.2317 2.8221 -0.747161 7.85674 -0.0412165 3.892 0 -1.06581e-014 -83.331 -5.19689 5.83887 3.4152 7.10543e-015 -7.10543e-015 -22.0886 -0.430888 2.20732 12.147 0.0099 -2.2166 -44.4077 -3.28501 3.26587 3.6012 -7.10543e-015 7.10543e-015 -88.1401 -5.68829 5.87569 3.3073 0 3.55271e-015 -87.833 -5.65683 5.87457 10.9082 -0.2264 -4.7258 -43.9622 -16.9638 6.05284 4.1367 0 7.10543e-015 -87.8527 -5.65886 5.87463 2.5948 1.42109e-014 -3.55271e-015 -87.8527 -5.65885 5.87463 -6.1057 9.1105 0.7056 5.38141 1.10906 4.88339 -12.655 -0.266 -2.6009 66.1165 7.52019 -12.0597 -27.4047 -7.10543e-015 0 7.69726e-005 -1.90505e-005 63.5448 -27.6145 0 -3.55271e-015 6.4581 -14.1377 3.65048 -12.7755 -1.42109e-014 0 22.4058 -1.17919 -3.90847 -3.614 5.32907e-015 0 39.2417 -1.05258 -2.95201 -3.4598 7.10543e-015 0 23.6311 -0.391241 -1.87007 -3.7888 -2.167 3.0031 -0.806047 -9.78998 16.2339 -3.6754 -2.122 2.122 -2.88976 10.2013 -31.7051 -3.3944 -1.9597 1.9598 -16.7083 11.7578 -40.0484 -12.2666 -0.2317 2.8221 22.6481 6.04963 17.252 -3.892 -5.32907e-015 -1.77636e-015 48.5735 -1.57955 -3.49961 -3.4152 -7.10543e-015 1.77636e-015 48.5735 -1.57955 -3.49961 -12.147 0.0099 -2.2166 43.8669 -2.85389 -4.91652 -3.6012 0 3.55271e-015 63.1594 -2.56137 -4.16562 -3.3073 1.42109e-014 7.10543e-015 65.1495 -2.70741 -4.23642 -10.9082 -0.2264 -4.7258 57.0467 -16.8371 -13.9106 -4.1367 0 -1.42109e-014 80.5859 -3.90629 -4.6066 -2.5948 2.84217e-014 0 80.5859 -3.90631 -4.6066 -9.1245 -6.6564 -0.0554 -28.5866 -51.3723 -29.0648 -0.2447 -40.5954 -0.5145 3.91735 56.6526 -13.1219 0.2447 -42.0479 -2.0602 -1.60861 -8.38978 -22.901 -0.3734 -10.4922 12.6407 4.59061e-006 -2.91392 4.4193e-006 9.1245 -6.6564 -0.0554 2.22626 -49.3247 13.9671 0.2447 -40.5954 -0.517 6.20231 48.3432 -5.35004 -0.2447 -42.048 -2.0576 0.980489 -18.1469 7.94534 0.3734 -10.4922 12.6407 2.97789e-006 -5.76839 -7.46548e-006 
-0.568613 92.0491 3.52211 2.13196 17.6724 -6.33305 5.55112e-017 9.9235 -1.2273 -7.13578 13.2094 -1.48471 -0.0001 11.6454 -1.4223 -3.6003 9.84178 -0.352586 0.0001 13.3602 -1.6265 -3.62381 9.83838 -0.270734 0 15.0325 0.7929 0.789056 -9.41384 0.416054 3.55271e-015 10.3218 3.1424 6.16141 -25.6629 3.37114 0.0002 18.4747 6.6364 0 0 -1.19271e-015 2.9479 7.6817 9.1207 0 0 -1.19271e-015 -2.9445 7.6817 9.1205 0 0 -1.19271e-015 6.1058 9.1104 0.7056 -2.81523 1.90992 -13.8506 12.655 -0.2659 -2.6009 -19.5234 -4.17408 -18.3313 27.4047 0 0 3.7682e-005 8.35863e-007 -65.7579 27.6145 0 -3.55271e-015 5.071 4.28773 -17.6812 12.7755 -1.42109e-014 -1.06581e-014 -28.5027 -1.78512 4.91058 3.614 0 3.55271e-015 -85.4984 -5.41801 5.8606 3.4598 0 0 -64.3163 -3.33125 5.29622 3.7888 -2.167 3.0031 0.00779029 0.641886 -8.07599 3.6754 -2.122 2.122 2.39184 9.46574 28.7559 3.3944 -1.9597 1.9598 16.968 14.7042 47.2267 12.2666 -0.2317 2.8221 -7.56299 7.47871 0.703898 3.892 0 -3.55271e-015 -87.442 -5.61684 5.8729 3.4152 0 -1.77636e-015 -22.4286 -0.444074 2.23958 12.147 0.0099 -2.2166 -47.8207 -3.63945 3.67304 3.6012 0 3.55271e-015 -88.1401 -5.68831 5.87569 3.3073 -1.42109e-014 -1.77636e-015 -87.833 -5.65685 5.87457 10.9082 -0.2264 -4.7258 -45.8131 -16.7792 6.63728 4.1367 0 7.10543e-015 -87.8527 -5.65887 5.87465 2.5948 0 -3.55271e-015 -87.8527 -5.65885 5.87464 -6.1057 9.1105 0.7056 4.43012 0.942767 4.90807 -12.655 -0.266 -2.6009 64.8807 12.2002 -15.0769 -27.4047 -7.10543e-015 0 2.10565e-005 -8.42738e-006 65.1177 -27.6145 0 0 7.84803 -14.3242 4.19573 -12.7755 0 -3.55271e-015 22.9455 -1.21619 -3.77001 -3.614 3.55271e-015 0 40.0537 -1.09481 -3.00299 -3.4598 0 0 23.6311 -0.39124 -1.87006 -3.7888 -2.167 3.0031 -0.806037 -9.78998 16.2339 -3.6754 -2.122 2.122 -2.88976 10.2013 -31.7051 -3.3944 -1.9597 1.9598 -16.7083 11.7578 -40.0484 -12.2666 -0.2317 2.8221 23.6508 5.76925 16.6671 -3.892 1.77636e-015 -3.55271e-015 49.0718 -1.61013 -3.52637 -3.4152 0 -1.77636e-015 48.5735 -1.57955 -3.49962 -12.147 0.0099 -2.2166 43.8668 -2.85389 -4.91652 -3.6012 -3.55271e-015 0 63.4188 -2.58026 -4.17512 -3.3073 0 0 65.1495 -2.70741 -4.23643 -10.9082 -0.2264 -4.7258 57.0467 -16.8371 -13.9106 -4.1367 -7.10543e-015 7.10543e-015 80.3563 -3.88785 -4.6035 -2.5948 1.42109e-014 7.10543e-015 80.5859 -3.90631 -4.60661 -9.1245 -6.6564 -0.0554 -27.8421 -49.9147 -29.3771 -0.2447 -40.5954 -0.5145 3.47866 51.8395 -12.0911 0.2447 -42.0479 -2.0602 0.712325 -6.41403 -20.4254 -0.3734 -10.4922 12.6407 5.47932e-006 -2.94533 1.10843e-005 9.1245 -6.6564 -0.0554 2.10875 -45.3388 14.4318 0.2447 -40.5954 -0.517 5.99075 46.3347 -4.63088 -0.2447 -42.048 -2.0576 0.691434 -19.151 7.63714 0.3734 -10.4922 12.6407 -6.23026e-007 -5.95215 2.43941e-006 
-0.878102 92.9248 6.00486 2.07181 16.4112 -7.34104 0 9.9235 -1.2273 -6.73861 12.3847 -1.87487 -0.0001 11.6454 -1.4223 -3.30938 9.24698 -0.582292 0.0001 13.3602 -1.6265 -3.32945 9.24545 -0.517226 -3.55271e-015 15.0325 0.7929 0.797967 -8.68046 0.743681 0 10.3218 3.1424 4.1597 -22.8638 4.12947 0.0002 18.4747 6.6364 1.49089e-015 0 -3.97569e-016 2.9479 7.6817 9.1207 1.49089e-015 0 -3.97569e-016 -2.9445 7.6817 9.1205 1.49089e-015 0 -3.97569e-016 6.1058 9.1104 0.7056 -1.97884 1.73259 -13.1358 12.655 -0.2659 -2.6009 -18.7559 -0.835907 -15.6109 27.4047 0 0 -2.45085e-005 -1.23632e-005 -66.2276 27.6145 0 -3.55271e-015 7.86844 4.84325 -18.2114 12.7755 0 0 -33.9922 -2.2747 5.28061 3.614 -1.42109e-014 -3.55271e-015 -87.8947 -5.66316 5.87481 3.4598 0 -7.10543e-015 -64.3163 -3.33122 5.2962 3.7888 -2.167 3.0031 -1.12214 1.02327 -7.58214 3.6754 -2.122 2.122 2.39184 9.46574 28.7559 3.3944 -1.9597 1.9598 16.968 14.7042 47.2267 12.2666 -0.2317 2.8221 -15.2353 6.82605 1.51486 3.892 0 0 -92.0338 -6.08699 5.87505 3.4152 0 -3.55271e-015 -22.8045 -0.458905 2.27514 12.147 0.0099 -2.2166 -51.591 -4.04007 4.10921 3.6012 7.10543e-015 7.10543e-015 -88.1401 -5.68828 5.87567 3.3073 -1.42109e-014 0 -87.833 -5.65685 5.87457 10.9082 -0.2264 -4.7258 -47.8621 -16.5629 7.27081 4.1367 -7.10543e-015 0 -87.8527 -5.65888 5.87464 2.5948 0 -1.77636e-015 -87.8527 -5.65888 5.87465 -6.1057 9.1105 0.7056 2.56016 0.896199 4.93951 -12.655 -0.266 -2.6009 63.5633 16.8089 -18.1473 -27.4047 -7.10543e-015 -1.42109e-014 -1.53872e-007 1.82943e-005 67.4464 -27.6145 0 0 9.68466 -13.7386 4.41142 -12.7755 0 0 24.4105 -1.31796 -3.39242 -3.614 3.9968e-015 0 42.2987 -1.21528 -3.14075 -3.4598 0 3.55271e-015 23.6311 -0.39124 -1.87007 -3.7888 -2.167 3.0031 -0.806027 -9.78999 16.2339 -3.6754 -2.122 2.122 -2.88976 10.2013 -31.7051 -3.3944 -1.9597 1.9598 -16.7083 11.7578 -40.0484 -12.2666 -0.2317 2.8221 26.2467 5.00453 15.1124 -3.892 -2.66454e-015 -1.77636e-015 50.4242 -1.69428 -3.59764 -3.4152 0 0 48.5735 -1.57955 -3.49961 -12.147 0.0099 -2.2166 43.8668 -2.85389 -4.91651 -3.6012 -3.55271e-015 3.55271e-015 64.145 -2.63339 -4.20132 -3.3073 -1.42109e-014 -3.55271e-015 65.1495 -2.70741 -4.23643 -10.9082 -0.2264 -4.7258 57.0467 -16.8371 -13.9106 -4.1367 0 -7.10543e-015 79.7074 -3.83577 -4.59433 -2.5948 -1.42109e-014 0 80.5859 -3.9063 -4.6066 -9.1245 -6.6564 -0.0554 -26.1521 -47.505 -29.1022 -0.2447 -40.5954 -0.5145 3.12333 46.6616 -11.3981 0.2447 -42.0479 -2.0602 3.91586 -3.92359 -18.8617 -0.3734 -10.4922 12.6407 1.72365e-006 -2.05687 3.77017e-005 9.1245 -6.6564 -0.0554 2.15176 -40.6581 14.9357 0.2447 -40.5954 -0.517 5.73325 43.7753 -4.21858 -0.2447 -42.048 -2.0576 0.264364 -19.9961 7.61006 0.3734 -10.4922 12.6407 -1.70451e-006 -6.20439 -7.02645e-006 
-1.20142 93.8443 8.843 1.9474 14.9772 -8.49369 -2.22045e-016 9.9235 -1.2273 -6.36087 11.3356 -2.1715 -0.0001 11.6454 -1.4223 -2.94151 8.47217 -0.867866 0.0001 13.3602 -1.6265 -2.95669 8.47229 -0.823851 -3.55271e-015 15.0325 0.7929 0.796278 -7.59392 1.18142 0 10.3218 3.1424 2.23087 -20.0046 4.86453 0.0002 18.4747 6.6364 -5.96354e-016 0 -3.97569e-016 2.9479 7.6817 9.1207 -5.96354e-016 0 -3.97569e-016 -2.9445 7.6817 9.1205 -5.96354e-016 0 -3.97569e-016 6.1058 9.1104 0.7056 -1.37997 1.55597 -12.4839 12.655 -0.2659 -2.6009 -18.2721 2.8225 -12.2675 27.4047 1.42109e-014 0 -1.06614e-005 8.60124e-007 -67.2369 27.6145 -1.42109e-014 -3.55271e-015 10.5443 5.30752 -17.8513 12.7755 -1.42109e-014 0 -39.8613 -2.83474 5.62255 3.614 0 -1.77636e-015 -90.4581 -5.9257 5.87859 3.4598 0 3.55271e-015 -64.3163 -3.33127 5.29623 3.7888 -2.167 3.0031 -2.33012 1.42154 -7.03324 3.6754 -2.122 2.122 2.39184 9.46574 28.7559 3.3944 -1.9597 1.9598 16.968 14.7042 47.2267 12.2666 -0.2317 2.8221 -23.3737 5.87462 2.30858 3.892 0 -1.77636e-015 -96.9487 -6.58827 5.83552 3.4152 -1.42109e-014 3.55271e-015 -23.2064 -0.474994 2.31306 12.147 0.0099 -2.2166 -55.6206 -4.47671 4.55872 3.6012 0 -1.77636e-015 -88.1401 -5.68829 5.8757 3.3073 0 3.55271e-015 -87.833 -5.65683 5.87457 10.9082 -0.2264 -4.7258 -50.0651 -16.3164 7.9373 4.1367 0 -7.10543e-015 -87.8527 -5.65885 5.87464 2.5948 0 0 -87.8527 -5.65888 5.87463 -6.1057 9.1105 0.7056 0.404385 0.882882 4.98294 -12.655 -0.266 -2.6009 61.2899 21.2404 -21.7352 -27.4047 0 -1.42109e-014 -9.6564e-006 9.60237e-006 70.7606 -27.6145 0 0 11.3442 -12.5484 4.39711 -12.7755 0 3.55271e-015 26.5691 -1.47134 -2.83118 -3.614 -4.44089e-015 3.55271e-015 45.6897 -1.40726 -3.33963 -3.4598 -1.42109e-014 3.55271e-015 23.6311 -0.391244 -1.87007 -3.7888 -2.167 3.0031 -0.806045 -9.78999 16.2339 -3.6754 -2.122 2.122 -2.88976 10.2013 -31.7051 -3.3944 -1.9597 1.9598 -16.7083 11.7578 -40.0484 -12.2666 -0.2317 2.8221 29.7952 3.86278 12.8851 -3.892 -3.55271e-015 1.77636e-015 52.4171 -1.8213 -3.69903 -3.4152 0 -4.44089e-016 48.5735 -1.57955 -3.49961 -12.147 0.0099 -2.2166 43.8668 -2.85389 -4.91653 -3.6012 0 0 65.2603 -2.71561 -4.24022 -3.3073 0 0 65.1495 -2.7074 -4.23643 -10.9082 -0.2264 -4.7258 57.0467 -16.8371 -13.9106 -4.1367 7.10543e-015 7.10543e-015 78.6991 -3.75506 -4.5789 -2.5948 1.42109e-014 0 80.5859 -3.90629 -4.6066 -9.1245 -6.6564 -0.0554 -23.3902 -44.799 -28.1921 -0.2447 -40.5954 -0.5145 2.85664 41.5491 -10.4522 0.2447 -42.0479 -2.0602 4.73598 -1.00299 -18.5266 -0.3734 -10.4922 12.6407 1.55761e-006 -2.20972 2.23013e-005 9.1245 -6.6564 -0.0554 2.39147 -35.2003 15.4828 0.2447 -40.5954 -0.517 5.40698 40.5408 -3.75031 -0.2447 -42.048 -2.0576 -0.514363 -20.6986 7.52495 0.3734 -10.4922 12.6407 -1.08367e-006 -6.79364 -1.82014e-006 
